<svg width="22" height="20" viewBox="0 0 22 20" fill="none" xmlns="http://www.w3.org/2000/svg">
<path d="M0.999999 9.49999L11.4098 1.36078" stroke="white" stroke-linecap="round"/>
<path d="M11.5766 1.35344L20.5 9.5" stroke="white" stroke-linecap="round"/>
<path d="M4.00002 9.99998V18C4.00002 18.5523 4.44773 19 5.00002 19H7.8276C8.37989 19 8.8276 18.5523 8.8276 18V13.6761C8.8276 13.4432 8.9065 13.2153 9.06456 13.0443C10.1463 11.8739 11.146 11.7663 12.4244 13.0368C12.6 13.2113 12.6897 13.4528 12.6897 13.7004V18C12.6897 18.5523 13.1374 19 13.6897 19H17C17.5523 19 18 18.5523 18 18V9.99998" stroke="white" stroke-linecap="round"/>
</svg>
