<svg width="21" height="21" viewBox="0 0 21 21" fill="none" xmlns="http://www.w3.org/2000/svg">
<path d="M18.0804 16.4246C18.0804 16.4246 17.0666 17.4204 16.8181 17.7123C16.4134 18.1442 15.9366 18.3481 15.3114 18.3481C15.2513 18.3481 15.1872 18.3481 15.1271 18.3441C13.9369 18.2682 12.8309 17.8043 12.0015 17.4084C9.73336 16.3126 7.74176 14.757 6.08677 12.7855C4.7203 11.1418 3.80665 9.62221 3.20156 7.9906C2.82889 6.99484 2.69264 6.21902 2.75275 5.4872C2.79282 5.01931 2.97315 4.6314 3.30575 4.29948L4.67222 2.9358C4.86857 2.75185 5.07695 2.65187 5.28132 2.65187C5.53377 2.65187 5.73814 2.80383 5.86637 2.9318C5.87038 2.9358 5.87439 2.9398 5.87839 2.9438C6.12284 3.17175 6.35525 3.40769 6.5997 3.65963C6.72392 3.7876 6.85215 3.91557 6.98038 4.04754L8.07436 5.13928C8.49913 5.56318 8.49913 5.95508 8.07436 6.37898C7.95815 6.49496 7.84595 6.61093 7.72974 6.7229C7.39313 7.06682 7.65755 6.80293 7.30892 7.11486C7.30091 7.12286 7.29289 7.12686 7.28889 7.13485C6.94427 7.47877 7.00838 7.81469 7.08051 8.04264C7.08452 8.05464 7.08853 8.06663 7.09253 8.07863C7.37705 8.76647 7.77777 9.41431 8.38687 10.1861L8.39088 10.1901C9.49688 11.5498 10.663 12.6096 11.9493 13.4214C12.1136 13.5253 12.2819 13.6093 12.4422 13.6893C12.5865 13.7613 12.7227 13.8293 12.8389 13.9012C12.8549 13.9092 12.871 13.9212 12.887 13.9292C13.0232 13.9972 13.1515 14.0292 13.2837 14.0292C13.6163 14.0292 13.8247 13.8213 13.8928 13.7533L14.6783 12.9694C14.8145 12.8334 15.0309 12.6695 15.2834 12.6695C15.5318 12.6695 15.7362 12.8254 15.8604 12.9614C15.8644 12.9654 15.8644 12.9654 15.8684 12.9694L18.0764 15.1729C18.4892 15.5808 18.0804 16.4246 18.0804 16.4246Z" stroke="white" stroke-linecap="round" stroke-linejoin="round"/>
</svg>
